<?xml version="1.0" encoding="UTF-8"?>
<svg id="Layer_1" data-name="Layer 1" xmlns="http://www.w3.org/2000/svg" version="1.1" viewBox="0 0 666 658">
  <defs>
    <style>
      .cls-1 {
        fill: #000;
      }

      .cls-1, .cls-2 {
        stroke-width: 0px;
      }

      .cls-2 {
        fill: #fff;
      }
    </style>
  </defs>
  <circle class="cls-2" cx="335.4" cy="328.8" r="316"/>
  <g>
    <path class="cls-1" d="M653,329.1c0,175.4-142.6,317.2-317.8,317-175.9-.2-318.7-142.4-317.4-319.6C19.1,151.8,160.3,11.4,335.6,11.5c176.8,0,317.7,143.3,317.4,317.6ZM164.1,314.2c.2,95.5,76.3,171.9,171.2,171.8,94.8,0,171.1-76.5,171.1-170.6,0-95.7-77.1-171.4-171.1-171.4-95.1,0-170.9,76.9-171.3,170.2ZM599.2,380.1c0-1.5,0-2.2,0-2.9-.4-2.8-.9-5.6-1.5-8.4-.4-1.8,0-3.2,1.4-4.5,2-1.8,4-3.8,5.9-5.8.6-.6.9-1.5,1.3-2.2-.8-.3-1.6-.9-2.4-1-2.9-.5-5.8-.6-8.6-1.2-1-.2-2.2-1.1-2.7-2-1.6-2.6-2.8-5.5-4.2-8.2-.3-.6-.9-1-1.4-1.6-.5.5-1.1,1-1.5,1.6-1.4,2.7-2.6,5.4-4.1,8-.6,1-1.8,2-2.9,2.2-3,.6-6.1.9-9.1,1.3-.7.1-1.6.5-1.8,1-.2.4.4,1.3.9,1.8,1.8,1.9,3.5,3.8,5.5,5.4,2.2,1.8,2.5,3.9,1.9,6.4-.6,2.3-.9,4.7-1.3,7.1,0,.7.2,1.4.3,2.1.7-.1,1.5-.1,2.1-.4,2.4-1.2,4.8-2.3,7.1-3.7,2.1-1.4,3.8-1.3,6,0,2.8,1.7,5.8,3.1,9.4,4.9ZM95.9,379.7l.7-.6c-.6-3.7-1.2-7.3-1.6-11-.1-1.1.3-2.5,1-3.3,2-2.2,4.3-4.2,6.3-6.4.5-.5.8-1.4,1.1-2-.7-.3-1.4-.9-2.2-1-3-.5-6.1-.7-9.1-1.3-.9-.2-1.9-.9-2.4-1.7-1.6-2.8-2.9-5.6-4.3-8.5-.3-.6-.9-1-1.4-1.5-.5.5-1.1.9-1.5,1.5-1.4,2.7-2.6,5.4-4.1,8-.6,1-1.8,2-2.9,2.2-3.1.7-6.3.8-9.4,1.4-2.2.4-2.4,1.2-.9,2.7,2.2,2.2,4.4,4.3,6.6,6.4,1.2,1.1,1.6,2.1,1.2,3.8-.7,2.9-1.2,5.9-1.6,8.8-.3,2.3.3,2.7,2.5,1.7.9-.4,1.8-.9,2.6-1.4q7.5-4,14.8.1c1.4.8,2.9,1.4,4.4,2.1ZM384.6,90.7c-.2,0-.5.2-.7.2-1.8-2.8-3.7-5.7-5.5-8.5-4.4-6.9-8.7-13.8-13.1-20.6-.6-1-2.1-2.1-3-2-.9.1-1.9,1.7-2.2,2.8-.7,3.4-1.1,6.8-1.7,10.3-1.1,7.4-2.2,14.8-3.3,22.1-.3,1.7,0,2.9,2,3.3,1.9.4,3.2-.2,3.5-2.1.6-3.6,1-7.2,1.5-10.9.5-3.8,1.1-7.6,1.7-11.3.1-.7.6-1.4,1.2-2.6,3.9,6.2,7.5,11.9,11.1,17.5,2.7,4.2,5.3,8.4,8.2,12.5.5.8,1.9,1.3,2.9,1.4.5,0,1.3-1.3,1.5-2.2.9-4,1.7-8.1,2.3-12.2,1.1-7,1.9-14.1,2.9-21.2.2-1.6,0-2.7-1.8-2.8-1.8-.2-3.3,0-3.6,2.3-.8,6.3-1.7,12.6-2.7,19-.2,1.6-.8,3.2-1.2,4.8ZM591.7,273.1c-4.2,5.3-8.1,10.2-11.9,15.1-3.6,4.5-7.2,8.9-10.7,13.5-.6.8-.7,2.3-.5,3.4,0,.4,1.5,1.1,2.2.9,6.7-1.1,13.3-2.3,20-3.6,2.2-.4,4.4-.8,6.6-1.2,2.4-.5,4.9-.8,7.3-1.4,1.9-.5,2.7-1.9,2.2-3.8-.5-1.8-1.8-1.9-3.4-1.6-7.6,1.5-15.2,3.1-22.8,4.6-.6.1-1.2,0-2.3,0,4.9-6.1,9.5-11.9,14.1-17.7,2.9-3.7,5.9-7.3,8.6-11,1.6-2.2.7-3.8-2.1-3.8-1.3,0-2.7.2-4,.4-5.5,1.1-11,2.2-16.5,3.3-4.5.9-8.9,1.7-13.4,2.5-1.7.3-2.1,1.3-2,2.8.1,1.7,1.1,2.5,2.7,2.3,2-.3,3.9-.9,5.8-1.2,6.5-1.1,13-2.1,20.2-3.3ZM258.4,89.7c4.8-1.3,9.3-2.6,13.8-3.8,2.8-.8,5.6-1.4,8.4-2.2,1.4-.4,2,.2,2.3,1.5,1.3,5,2.7,9.9,3.9,14.9.6,2.3,2.2,2,3.7,1.8,1.7-.3,2-1.4,1.6-3-1-3.5-1.9-7-2.8-10.5-1.8-7.1-3.7-14.2-5.5-21.4-.4-1.4-.6-2.9-1.1-4.3-.7-1.8-2-2.5-4-1.9-1.7.5-2,1.7-1.7,3.1.9,3.5,1.8,7.1,2.9,10.5,1,3.3,1.2,4.2-3.1,5.3-5.9,1.6-11.8,3.1-17.7,4.7-1.3.4-2.1.4-2.5-1.3-1.1-4.3-2.4-8.4-3.5-12.7-.5-1.9-1.7-2.3-3.4-2.1-1.9.2-2.2,1.7-1.9,3.2.5,2.6,1.2,5.2,1.9,7.7,1.5,5.7,3,11.3,4.5,17,1.1,4,2.2,8,3.3,11.9.5,1.8,1.6,2.2,3.5,1.6,1.9-.6,2.2-1.8,1.8-3.5-.5-2.1-1.2-4.1-1.8-6.2-.9-3.4-1.8-6.8-2.7-10.3ZM449.7,96.2c-1-6.5-2.8-12.7-8.8-16.1-4.4-2.5-9.3-4.3-14.1-6.1-.7-.3-2.4.7-2.9,1.5-1.1,1.9-1.9,4.1-2.7,6.1-3.3,7.9-6.5,15.9-9.8,23.9-1.2,2.9-.8,4.3,2.2,5.5,4.8,1.9,9.6,4.2,14.7,5.3,3.1.7,7,.2,9.9-1.1,8-3.6,10.4-11,11.6-19ZM586.8,226.6c.7-10.1-8.6-19.1-19.2-19.2-11.7,0-21.2,9.6-20.9,20.1.3,11.6,8.7,19.6,19.6,19.5,10.7-.1,20.8-7,20.6-20.4ZM94.3,203.9c.7.8,1.1,1.7,1.9,2.2,2.9,1.8,5.8,3.5,8.8,5.2,6.7,3.9,13.5,7.8,20.2,11.8,1.6,1,2.8.5,3.8-1,1-1.6.4-2.6-1.1-3.4-2.8-1.6-5.6-3.2-8.4-4.9-.7-.4-1.5-1.2-1.6-1.9-.1-1.8,3.6-5.5,5.4-5.7,3.6-.4,7.3-.7,10.8-1.4,3.1-.6,6-1.8,7.7-4.6.6-.9.5-2.4.7-3.6-1.3,0-3.1-.5-3.8.1-4.4,3.9-10,3.1-15,4.4-1.5.4-2.3-.3-2.8-2-.5-2-1.6-3.9-2.8-5.5-2.6-3.6-7.5-5.1-11.4-4.1-4.4,1.2-6.9,4.4-9.1,8-1.2,1.9-2.1,4.1-3.3,6.4ZM191.4,118c-.6.6-1,1.2-1.6,1.7-5,3.7-10,7.4-15,11.2-1.2.9-2,.4-2.7-.6-2.1-2.8-4.1-5.7-6.3-8.4-.6-.8-2.1-1.5-3-1.3-2.3.5-2.7,2.1-1.1,4.4,3.8,5.2,7.7,10.4,11.6,15.6,2.8,3.7,5.5,7.5,8.4,11.1.6.7,2.3,1.1,3.1.8,1.5-.6,1.8-2.1,1-3.6-.4-.7-.9-1.4-1.4-2.1-2-2.7-4.1-5.4-6.1-8.2-2-2.6-1.9-3,.7-5,4.3-3.2,8.6-6.3,12.9-9.4,2.7-2,2.8-1.9,4.9.8,2.4,3.2,4.8,6.4,7.1,9.6,1,1.3,2.2,1.9,3.6.9,1.6-1.1,1.4-2.5.4-3.9-.4-.5-.8-1.1-1.1-1.6-3.6-4.9-7.2-9.8-10.8-14.7-2.5-3.3-4.9-6.7-7.4-10-1-1.4-2.2-2.6-4.1-1.3-2.1,1.4-.9,2.9,0,4.3.4.6.9,1.2,1.4,1.8,1.9,2.5,3.7,5.1,5.7,7.8ZM528,143.1c-.4-1.4-.7-2.9-1.2-4.3-1.7-4.6-5.5-7.4-9.1-10.3-1.4-1.1-2.6-.3-3.7.8-4.2,4.3-8.4,8.6-12.5,12.9-3.5,3.7-7,7.4-10.3,11.2-.5.6-.6,2.6-.1,2.9.8.6,2.2.5,3.3.4.5,0,1-.8,1.5-1.3,2-2.1,4.1-4.1,6-6.3.9-1,1.6-1.1,2.7-.2,2.4,2.1,4.2,4.3,3.3,7.9-.6,2.3-.7,4.7-1,7.1-.4,3.6.6,6.9,2.4,9.9.3.6.8,1.2,1.4,1.4.9.2,2,.3,2.7,0,.5-.3.7-1.8.4-2.4-2.1-3.8-1.5-7.7-1.5-11.8,0-5.6,2.7-7,7.2-7.4,3.9-.4,9-6.1,8.7-10.5ZM110.3,267.8c-.6-1-1-2.1-1.7-2.8-2-1.9-4-3.8-6.2-5.4-1.6-1.2-1.9-2.6-1.2-4.4,1.2-3.1,2.4-6.2,3.4-9.4.5-1.7,1.3-2.1,2.8-2.1,3.1,0,6.2,0,9.2-.3,2.3-.2,3.5-1.8,3.1-3.7-.5-2.3-2.2-2-4-1.8-2.4.3-4.8.6-7.2.7-9.4.5-18.8.9-28.2,1.5-1,0-2.5,1-2.8,1.8-.3.8.3,2.5,1.1,3.2,9,8.2,18.1,16.3,27.2,24.3.7.6,2.1,1.2,2.8.9.7-.3,1.1-1.6,1.7-2.7ZM104.7,295.6c0-.6,0-1.2,0-1.7,0-4.1-1.6-7.5-5-9.5-4-2.3-8.4-2.7-12.4.4-2.4,1.9-4.7,3.9-7,6-1.9,1.7-3.7,3.6-5.7,5.2-1.8,1.4-4,1.9-6,.5-1.9-1.3-2.9-3.4-2.3-5.7.6-2.4,1.4-4.8,2.5-7,.9-1.9.5-2.9-1.1-3.9-1.8-1.1-3-.2-3.6,1.3-1.1,2.7-2.3,5.5-2.9,8.4-.6,3.3-.3,6.7,1.9,9.5,3.8,4.9,10.5,5.3,15.7,1,3.8-3.1,7.4-6.4,11-9.7,2-1.9,4.3-1.9,6.5-1.1,2.2.8,3.2,3,3.4,5.4.2,3.6-.8,6.9-2.9,9.8-1,1.4-1.3,3.1.3,4.2,1.6,1.1,3,.5,4-1.1,2.5-3.6,3.8-7.5,3.6-11.9ZM129.6,154.4c.8,1.7,1.8,3.9,2.8,6,4.5,9.2,9.1,18.5,13.7,27.7.4.7,1.7,1,2.7,1.5.5-1,1.4-2,1.5-3.1,0-.9-.6-1.9-1-2.7-1.1-2.3-2.4-4.6-3.3-7-.3-.8-.2-2.2.3-2.8,2-2.6,4.3-4.9,6.3-7.4,1.7-2.2,3.7-2.1,6-1.2,2.6,1,5.3,2.1,8,2.5.9.2,2.5-1,3.2-2,.9-1.3-.4-2-1.6-2.4-.7-.2-1.3-.7-2-.9-11.1-3.7-22.2-7.4-33.3-11-1.8-.6-3.2.5-3.2,2.9ZM325.1,98.3c0,0,0-.1,0-.2,2.7,0,5.3,0,8,0,1.8,0,2.7-1.2,2.5-3-.1-1.8-1.5-1.9-2.9-1.9-3.2,0-6.3,0-9.5.2-2,0-2.6-.7-2.6-2.6,0-2.9-.2-5.8-.6-8.7-.3-2.1.4-2.6,2.3-2.6,2.7,0,5.5,0,8.2-.1,1.6,0,2.4-1,2.5-2.6,0-1.7-1.1-2.1-2.5-2.1-1.2,0-2.5,0-3.7,0-8,0-7.9,0-7.5-8.1,0-1.6.7-2.1,2.3-2.3,3.2-.2,6.3-.6,9.4-1,2-.2,3-1.8,1.9-3.5-.5-.8-2-1.4-3.1-1.4-4.5.2-9,.7-13.4,1-2.1.1-3.1,1.2-2.8,3.2.3,2.5.8,4.9.9,7.4.5,8.6.8,17.1,1.1,25.7,0,2,1,2.7,2.8,2.6,2.2,0,4.5,0,6.7,0ZM473.9,142.4c.7-.6,1.9-1.2,2.1-2,.1-.9-.4-2.4-1.1-2.9-2.6-2-5.3-3.7-8-5.5-1.4-.9-1.9-1.8-.7-3.4,1.8-2.5,3.5-5.1,5.1-7.7.8-1.4,1.5-1.6,2.9-.6,2.2,1.6,4.6,2.9,6.9,4.5,1.5,1,2.7.9,3.6-.6.9-1.5.3-2.6-1.1-3.6-2.3-1.5-4.5-3.1-6.9-4.5-1.3-.8-1.5-1.6-.6-2.8,1.2-1.7,2.4-3.4,3.5-5.2,1-1.5,2-1.7,3.5-.6,2.4,1.7,5,3.3,7.5,5,1.6,1.1,3,.9,4.1-.7,1.1-1.7-.3-2.5-1.5-3.3-3.5-2.3-6.9-4.6-10.4-6.9-3.1-2-3.8-1.9-5.8,1.1-5.8,8.7-11.5,17.5-17.3,26.2-1.5,2.3-1.3,3.4.9,5,3.7,2.5,7.4,5,11.2,7.5.5.4,1.2.6,2.2,1ZM222.5,553.1c.2,0,.5,0,.7.1.9,2.5,1.8,4.9,2.7,7.4,2.1,5.8,4.1,11.7,6.2,17.5.3.7,1.1,1.6,1.8,1.7.6,0,1.7-.7,2-1.4,3.4-7.8,6.7-15.7,9.8-23.7.3-.8-.3-2.6-1-3-1.4-.9-2.7.1-3.4,1.6-1,2.4-1.8,4.8-2.8,7.2-1.3,3.2-2.6,6.3-4,9.5-.5-.4-.7-.5-.7-.6-2.3-6.4-4.5-12.8-6.7-19.2-.7-2.1-1.4-4.3-2.4-6.2-.9-1.7-2.6-1.5-3.3.3-3.3,8-6.6,16.1-9.8,24.2-.3.7.2,2.3.8,2.6,1.2.6,2.6.6,3.3-1.1.9-2.1,1.8-4.3,2.6-6.4,1.4-3.5,2.9-7,4.3-10.5ZM568.6,444.6c.8-.5,1.1-1,1.5-1.1,4.3-.9,8.6-1.7,12.9-2.6,4-.8,8.1-1.6,12.1-2.6.7-.2,1.8-1,1.8-1.6,0-.7-.7-1.7-1.4-2.1-3.3-2-6.6-3.9-9.9-5.8-4-2.3-8-4.5-12-6.7-1.3-.7-2.8-1-3.6.7-.7,1.5,0,2.5,1.4,3.2.5.2,1,.5,1.5.8,4.7,2.7,9.4,5.4,14.5,8.3-.8.3-1.2.5-1.5.6-8.2,1.7-16.4,3.3-24.6,5.1-1,.2-2.1,1.1-2.5,1.9-.2.5.9,1.9,1.6,2.3,7.2,4.1,14.5,8.1,21.7,12.2,1.3.7,2.6,1.2,3.4-.4.8-1.5.2-2.6-1.3-3.5-3.1-1.7-6.2-3.5-9.3-5.3-2-1.2-4.1-2.4-6.4-3.7ZM538.5,181.2c.2,0,.4,0,.6.1,0,1.7.1,3.3,0,5-.2,1.6-.6,3.3-1.1,4.8-1.1,3-4.3,4.3-7,2.6-3.2-1.9-5.1-4.8-5.6-8.4-.3-2-1-3.2-3.1-3-2.2.1-2.2,1.9-2,3.3.9,5.7,4.2,9.8,9,12.8,3.9,2.4,7.3,1.2,10.6-1.2,2.9-2.2,4-5.5,4.3-8.9.2-3.5,0-7,.1-10.5,0-2.8,1.9-5.8,4-6.4,1.7-.5,4.1.8,5.8,3.5,1.1,1.8,1.8,3.9,2.9,5.7.4.7,2,1.4,2.5,1.1.8-.5,1.7-1.8,1.5-2.6-.8-4.3-3-7.9-6.4-10.7-4.8-4-11.5-2.6-13.9,3.2-1.2,3-1.4,6.3-2.1,9.5ZM291.1,590.3c0,.5,0,.8,0,1,0,1.5,0,3.3,2,3.4,2.1.2,2.6-1.5,2.8-3.1.2-1.6.2-3.2.2-4.7,0-3,.4-3.5,3.3-2.9,1.1.2,2.4,1.3,3,2.4,2.6,4.2,4.4,9.1,9.8,10.6,1,.3,2.2-.5,3.3-.7-.4-1-.6-2.5-1.3-2.8-3.5-1.6-4.7-5-6.8-7.8-1.4-1.9-1.3-3.2.7-4.8,4.6-3.8,4.1-12.2-1.6-14.4-2.8-1.1-5.9-1.6-8.9-2.1-2.7-.4-3.9.7-4.1,3.4-.2,2-.1,4-.4,6-.7,5.6-1.5,11.2-2.2,16.5ZM552.8,492.4c8.8,1,15.3-7.7,15.3-14.7,0-8-6.6-15.6-16.3-15.7-7.9,0-15,7.6-14.9,14.4,0,7.9,7.2,16.9,15.9,15.9ZM187.4,527.6c-.5-1.5-.7-3.4-1.7-4.5-2.3-2.4-5-4.5-7.7-6.5-1.4-1-2.8-.3-3.8,1.2-4.6,6.8-9.3,13.6-13.9,20.4-1,1.4-.7,2.4.6,3.4,1.4,1,2.2,0,2.9-.8,1.4-1.8,2.7-3.8,4.1-5.6.4-.5.9-1.1,1.4-1.1,1.6,0,3.7,2.3,3.7,4.1,0,2.2,0,4.3.1,6.5.3,3.2,1.3,6.2,3.9,8.3.6.5,1.9.6,2.6.3.5-.2.9-1.9.5-2.3-3.1-3.4-1.9-7.6-2.5-11.4-.3-1.7.4-2.8,2.3-3.2,4.5-.9,7-4,7.5-8.7ZM462.4,534.7c-3.3-.3-6.1,1.8-9.1,3.5-2,1.2-2.1,2.8-1.1,4.7,3.7,7,7.4,14.1,11.2,21.1.6,1.1,1.3,2.6,3,1.7,1.6-.9,1.8-2.2,1-3.8-.9-1.8-1.8-3.5-2.8-5.3-.9-1.6-.4-2.5,1.2-3.3,2.6-1.4,4.5.3,6.5,1.1,3.8,1.5,7.4,4,11.7,1.9.8-.4,1.3-1.4,2-2.1-.8-.5-1.7-1.6-2.5-1.5-4.3.4-7.7-1.8-11.3-3.4-1.4-.6-1.7-1.2-1-2.7,2.1-4.9-2.1-12.5-8.8-11.9ZM499.6,542.8c8.3,0,13.1-4.2,16.9-9.9.4-.6.2-2-.3-2.7-1.7-2.7-3.6-5.2-5.5-7.7-1-1.3-2.2-2.3-3.8-1.1-1.7,1.3-.7,2.7.2,3.9,1.2,1.8,2.6,3.4,3.8,5.3.4.6.7,1.9.3,2.3-2.6,3.1-5.7,5.8-10,5.8-4.6,0-8-2.5-10.4-6.3-2.5-4.2-1.9-9.5,1.6-12.6,2.3-2,5.2-3.3,7.7-5,.7-.5,1-1.5,1.5-2.2-.8-.5-1.6-1.4-2.3-1.3-1.4.1-2.7.7-4,1.2-6.5,2.9-13.3,10.9-9.7,19.6,1.9,4.7,6.9,11.1,14,10.7ZM276.5,589.9c-.3-3-.4-5.4-.8-7.8-1.1-6.8-2.3-13.5-3.6-20.3-.2-.9-.9-2.4-1.4-2.5-1,0-2.6.4-3.2,1.2-5.4,7.1-10.6,14.3-15.9,21.4-.9,1.3-1.5,2.6-.1,3.7,1.6,1.3,2.8.2,3.8-1,1.3-1.7,2.6-3.4,3.9-5.2.8-1.2,1.6-1.5,3.1-1,2.1.8,4.3,1.2,6.5,1.6,1.7.3,2.1,1.1,2.2,2.7.2,2.4.6,4.8,1.4,7,.2.7,1.7,1.3,2.7,1.4.5,0,1.2-1,1.5-1.2ZM439.1,567c0,5.2-2.5,8.3-6.6,9.4-3.3.9-6.8-.6-8.4-4.1-2.3-5.3-4.3-10.7-6.4-16.2-.6-1.5-1.4-2.3-3-1.8-1.5.5-2.2,1.7-1.6,3.1,2.2,5.7,4.2,11.6,6.9,17,4.5,8.8,13.8,7.6,19.8,2.6,4.8-4.1,3.9-9.7,2.4-15-1.2-4.4-3-8.6-4.6-12.8-.5-1.3-1.1-2.6-2.8-2-1.8.6-2.1,2-1.5,3.7.9,2.6,2,5.2,2.9,7.9,1.1,3.2,2.2,6.4,2.9,8.3ZM82.5,440.8c.6-1.1.8-1.6,1.1-2.1,2.6-3.4,5.3-6.8,8-10.2,2.1-2.8,4.3-5.5,6.4-8.3,1.1-1.4.4-2.9-.9-3.6-.6-.3-2.2.4-2.8,1.1-6.2,7.8-12.3,15.7-18.4,23.6-.7.9-1.3,2.7-.9,3.2.6.8,2.2,1.4,3.4,1.3,3.2-.2,6.4-.8,9.6-1.1,6.3-.6,12.6-1.1,18.8-1.6.8,0,1.7-.3,2.3-.7.6-.4,1.3-1.3,1.2-1.8-.1-.7-.9-1.6-1.6-2-.7-.3-1.6-.2-2.4-.1-3.8.4-7.6.8-11.4,1.2-2.2.3-4.4.6-6.7.8-1.8.2-3.5.2-5.8.3ZM391.7,591.3c0,.2,0,.3.1.5,2.4-.6,4.9-.9,7.1-1.8,7-2.8,6.6-11.5,2.5-14.5-2.1-1.5-4.6-2.6-6.9-4-2.3-1.4-4.7-2.6-6.6-4.3-1.8-1.7-1.4-3.6.8-4.6,2.1-.9,4.6-1,6.9-1.3,1.4-.2,2.9,0,3.1-1.8.2-1.9-1.3-2.6-2.7-2.6-3,.1-6,.3-8.8,1.2-2.1.8-4.2,2.3-4.8,5-1,4.5.5,7.8,5.2,10.4,3,1.7,6.1,3.1,9,4.7,2,1.1,3,3.1,2.1,5-.7,1.4-2.4,2.8-3.9,3.3-1.9.6-4.1.2-6.1.1-1.7,0-3.2.3-3.3,2.2-.1,1.8,1.3,2.3,2.8,2.4,1.1,0,2.2,0,3.2,0ZM114.8,458.4c1.6,2.1,3,4.1,4.5,6.2.9,1.3,2.1,2.1,3.6,1.1,1.5-1,.5-2.2-.2-3.3-1.7-2.5-3.5-4.9-5.3-7.3-1.7-2.2-2.7-2.4-5-.8-6.5,4.7-13,9.5-19.6,14.3-1.3,1-1.6,2.1-.7,3.4,2,2.9,4,5.7,6.1,8.5.8,1.1,1.9,2.5,3.5,1.2,1.5-1.2.7-2.5-.2-3.7-1.6-2.2-3.1-4.4-4.8-6.8,2.3-1.7,4.3-3.1,6.3-4.6,1.4-1.1,2.4-.9,3.3.5,1,1.4,1.9,3,3.1,4.2.6.6,1.9.5,2.9.7.1-.9.4-1.8.4-2.7,0-.5-.5-1-.8-1.5q-3.6-5.2,1.7-8.7c.3-.2.6-.3,1.2-.6ZM149.2,508.5c1.4-1.6,2.4-3.1,3.8-4.3.6-.5,2-.5,2.7-.1,1.7,1.1,3,2.6,4.7,3.7.9.5,2.6.9,3.2.4,1.3-1.1.4-2.4-.7-3.4-2.4-2.2-4.9-4.2-7.4-6.4-1.2-1.1-2.4-1-3.5.2-5.6,6.4-11.2,12.7-16.7,19.2-.5.6-.7,2.4-.3,2.8,2.9,2.8,6,5.5,9.2,8,.5.4,2.1,0,2.5-.4.4-.5.2-1.9-.2-2.5-.6-.9-1.7-1.6-2.5-2.4q-4.6-3.9-.8-8.4c2.9-3.4,3-3.4,6.4-.4.6.5,1.3,1.1,1.9,1.7,1,.9,2.3,1.8,3.4.5,1.1-1.3.3-2.5-.8-3.5-1.6-1.5-3.3-3-5.1-4.7ZM522.5,488.9c-.8.5-1.5.8-2,1.2-2.4,2.3-4.8,4.6-7.2,6.9-1.2,1.1-1.2,2.3,0,3.4,5.9,6.1,11.7,12.3,17.6,18.4,1.1,1.1,2.2,1.2,3.3.2,2.7-2.5,5.5-5.1,8.1-7.8.5-.5,0-1.8.1-2.7-.9,0-2.1-.4-2.7,0-1.9,1.4-3.6,3.2-5.4,4.8-.9.9-1.7,1.2-2.7.1-1.6-1.7-3.1-3.4-4.8-5.1-.9-1-.7-1.7.2-2.5,1.3-1.1,2.7-2.3,3.8-3.6.6-.8.6-2.1.9-3.2-1.2.2-2.4.3-3.6.5-.3,0-.6.5-.9.8-4.4,4.2-4.5,4.2-8.4-.5-.9-1.1-.9-1.8.1-2.7,1.7-1.6,3.4-3.2,5-4.9.4-.5.7-1.4.5-2-.2-.6-1-.9-1.6-1.5ZM336.5,581c-1.2-1.8-2-3-2.7-4.3-1.7-2.8-3.4-5.7-5.2-8.5-.9-1.5-2.4-2.1-3.8-1.2-1.4.9-.9,2.3-.2,3.5,1.7,2.7,3.3,5.5,5.1,8.3,2.7,4.3,5.4,8.6,4.4,14.1,0,.6,0,1.2,0,1.7,0,1.5.7,2.6,2.4,2.7,1.8,0,2.2-1.2,2.2-2.6,0-2-.1-4,0-6,.2-1.6.5-3.3,1.3-4.7,2.2-4,4.7-7.8,6.8-11.9.8-1.5,3.2-3.2.9-5.2-1.4-1.2-3.3,0-5,3.1-1.9,3.5-3.9,6.9-6.2,10.9ZM133.2,481.6c-.7.8-1.2,1.4-1.7,2-4.7,4.3-9.5,8.6-14.2,12.9-1.3,1.2-3.1,2.5-1.5,4.3,1.6,1.9,3,0,4.1-1.1,5-4.4,9.9-8.8,14.8-13.4,1.6-1.5,2.4-1.1,3.6.3,1,1.2,2,2.5,3.2,3.4.6.5,1.9.1,2.8.1,0-.9.4-2.1,0-2.6-4.1-4.8-8.4-9.4-12.7-14-.4-.5-2.1-.5-2.5-.1-.5.4-.7,1.9-.3,2.5.8,1.4,2.1,2.5,3.2,3.8.5.5.9,1.1,1.4,1.9ZM190.6,559.3c.3.5.7,1.5,1.2,1.7.7.2,2,0,2.5-.4.9-.9,1.5-2.2,2.1-3.3,3.6-6.5,7.1-13,10.7-19.5.8-1.5.5-2.6-.8-3.4-1.3-.8-2.3-.1-3,1.2-4,7.4-8.1,14.7-12.1,22.1-.2.4-.3.9-.6,1.7Z"/>
    <path class="cls-2" d="M164.1,314.2c.4-93.3,76.3-170.2,171.3-170.2,94,0,171.1,75.6,171.1,171.4,0,94.1-76.4,170.6-171.1,170.6-95,0-171-76.4-171.2-171.8ZM332.1,479.7c87.7,1.9,166.4-66.6,168.1-161.5,1.6-88.9-66.3-163.2-157.1-167.5-92.5-4.5-167.5,66.4-172.3,154.9-5.2,95.2,68.8,172.3,161.3,174.1Z"/>
    <path class="cls-2" d="M599.2,380.1c-3.6-1.8-6.6-3.2-9.4-4.9-2.1-1.3-3.8-1.4-6,0-2.2,1.4-4.7,2.6-7.1,3.7-.6.3-1.4.3-2.1.4,0-.7-.4-1.4-.3-2.1.4-2.4.7-4.8,1.3-7.1.6-2.6.3-4.6-1.9-6.4-2-1.6-3.7-3.6-5.5-5.4-.5-.5-1.1-1.4-.9-1.8.2-.5,1.1-.9,1.8-1,3-.5,6.1-.7,9.1-1.3,1.1-.2,2.3-1.2,2.9-2.2,1.5-2.6,2.7-5.4,4.1-8,.3-.6,1-1,1.5-1.6.5.5,1.1,1,1.4,1.6,1.4,2.7,2.7,5.6,4.2,8.2.5.9,1.7,1.8,2.7,2,2.8.6,5.8.8,8.6,1.2.8.1,1.6.6,2.4,1-.4.7-.7,1.6-1.3,2.2-1.9,2-3.8,4-5.9,5.8-1.4,1.3-1.8,2.6-1.4,4.5.6,2.8,1,5.6,1.5,8.4.1.7,0,1.4,0,2.9Z"/>
    <path class="cls-2" d="M95.9,379.7c-1.5-.7-3-1.3-4.4-2.1q-7.4-4.1-14.8-.1c-.9.5-1.7,1-2.6,1.4-2.2,1-2.8.6-2.5-1.7.4-3,.9-5.9,1.6-8.8.4-1.6,0-2.7-1.2-3.8-2.3-2.1-4.5-4.2-6.6-6.4-1.5-1.6-1.3-2.4.9-2.7,3.1-.5,6.3-.7,9.4-1.4,1.1-.2,2.3-1.2,2.9-2.2,1.5-2.6,2.7-5.4,4.1-8,.3-.6,1-1,1.5-1.5.5.5,1.1.9,1.4,1.5,1.5,2.8,2.8,5.7,4.3,8.5.5.8,1.5,1.6,2.4,1.7,3,.6,6.1.8,9.1,1.3.8.1,1.4.7,2.2,1-.4.7-.6,1.5-1.1,2-2.1,2.2-4.4,4.1-6.3,6.4-.7.8-1.1,2.2-1,3.3.4,3.7,1.1,7.3,1.6,11l-.7.6Z"/>
    <path class="cls-2" d="M384.6,90.7c.4-1.6,1-3.2,1.2-4.8.9-6.3,1.9-12.6,2.7-19,.3-2.4,1.8-2.5,3.6-2.3,1.8.2,2,1.2,1.8,2.8-1,7.1-1.9,14.1-2.9,21.2-.6,4.1-1.4,8.1-2.3,12.2-.2.8-1,2.2-1.5,2.2-1,0-2.3-.6-2.9-1.4-2.8-4.1-5.5-8.3-8.2-12.5-3.6-5.7-7.2-11.3-11.1-17.5-.6,1.2-1,1.9-1.2,2.6-.6,3.8-1.2,7.5-1.7,11.3-.5,3.6-.9,7.2-1.5,10.9-.3,1.9-1.6,2.5-3.5,2.1-2-.4-2.2-1.6-2-3.3,1.2-7.4,2.2-14.8,3.3-22.1.5-3.4.9-6.9,1.7-10.3.2-1.1,1.3-2.7,2.2-2.8.9-.1,2.4,1,3,2,4.5,6.8,8.7,13.8,13.1,20.6,1.8,2.8,3.6,5.7,5.5,8.5.2,0,.5-.2.7-.2Z"/>
    <path class="cls-2" d="M591.7,273.1c-7.2,1.2-13.7,2.2-20.2,3.3-1.9.3-3.8,1-5.8,1.2-1.5.2-2.5-.6-2.7-2.3-.1-1.5.3-2.6,2-2.8,4.5-.8,8.9-1.6,13.4-2.5,5.5-1.1,11-2.2,16.5-3.3,1.3-.3,2.6-.4,4-.4,2.8,0,3.7,1.6,2.1,3.8-2.7,3.8-5.7,7.4-8.6,11-4.6,5.8-9.2,11.6-14.1,17.7,1.1,0,1.7.2,2.3,0,7.6-1.5,15.2-3,22.8-4.6,1.5-.3,2.9-.2,3.4,1.6.5,1.9-.3,3.4-2.2,3.8-2.4.6-4.9.9-7.3,1.4-2.2.4-4.4.8-6.6,1.2-6.7,1.2-13.3,2.5-20,3.6-.7.1-2.2-.5-2.2-.9-.2-1.1-.1-2.6.5-3.4,3.5-4.6,7.1-9,10.7-13.5,3.9-4.9,7.7-9.7,11.9-15.1Z"/>
    <path class="cls-2" d="M258.4,89.7c.9,3.5,1.8,6.9,2.7,10.3.6,2.1,1.2,4.1,1.8,6.2.4,1.6,0,2.8-1.8,3.5-1.8.6-2.9.2-3.5-1.6-1.2-4-2.3-7.9-3.3-11.9-1.5-5.7-3-11.3-4.5-17-.7-2.6-1.4-5.1-1.9-7.7-.3-1.5,0-2.9,1.9-3.2,1.6-.2,2.9.1,3.4,2.1,1.1,4.2,2.4,8.4,3.5,12.7.4,1.6,1.2,1.7,2.5,1.3,5.9-1.6,11.8-3.1,17.7-4.7,4.3-1.2,4.2-2.1,3.1-5.3-1.1-3.5-2-7-2.9-10.5-.4-1.4,0-2.6,1.7-3.1,2-.6,3.3.1,4,1.9.5,1.4.7,2.9,1.1,4.3,1.8,7.1,3.6,14.3,5.5,21.4.9,3.5,1.8,7,2.8,10.5.5,1.6.1,2.7-1.6,3-1.5.2-3.2.5-3.7-1.8-1.2-5-2.6-9.9-3.9-14.9-.3-1.3-.9-1.9-2.3-1.5-2.8.8-5.6,1.5-8.4,2.2-4.5,1.2-9.1,2.5-13.8,3.8Z"/>
    <path class="cls-2" d="M449.7,96.2c-1.2,7.9-3.6,15.4-11.6,19-2.9,1.3-6.8,1.8-9.9,1.1-5-1.1-9.8-3.3-14.7-5.3-2.9-1.2-3.4-2.6-2.2-5.5,3.3-7.9,6.5-15.9,9.8-23.9.9-2.1,1.6-4.2,2.7-6.1.5-.8,2.2-1.8,2.9-1.5,4.8,1.8,9.6,3.6,14.1,6.1,6,3.4,7.9,9.5,8.8,16.1ZM444.3,95.3c-.5-1.8-.7-3.8-1.6-5.4-2.8-5.2-7.5-7.9-13-9.7-1.4-.4-1.9-.1-2.4,1.1-3.2,7.8-6.4,15.6-9.7,23.4-.7,1.6,0,2.6,1.4,3.2,1.9.8,3.8,1.8,5.7,2.4,6.6,2,12.5,1.3,16.3-4.6,2-3.1,3.1-6.6,3.3-10.4Z"/>
    <path class="cls-2" d="M586.8,226.6c.2,13.3-9.9,20.3-20.6,20.4-10.9.1-19.3-7.9-19.6-19.5-.2-10.5,9.2-20.1,20.9-20.1,10.6,0,19.9,9.1,19.2,19.2ZM565.9,241.3c7.4,1.2,16.4-7.5,16.1-14.3-.4-8.4-6.4-14.3-14.3-14.6-7.8-.4-16.1,7.9-16.1,14.5,0,6.8,5.2,15.3,14.2,14.5Z"/>
    <path class="cls-2" d="M94.3,203.9c1.2-2.4,2.1-4.5,3.3-6.4,2.2-3.5,4.7-6.8,9.1-8,3.9-1,8.8.5,11.4,4.1,1.2,1.7,2.2,3.6,2.8,5.5.5,1.7,1.3,2.3,2.8,2,5.1-1.2,10.7-.5,15-4.4.7-.7,2.5-.1,3.8-.1-.2,1.2,0,2.6-.7,3.6-1.8,2.7-4.7,4-7.7,4.6-3.6.7-7.2,1-10.8,1.4-1.8.2-5.6,3.9-5.4,5.7,0,.7.9,1.5,1.6,1.9,2.7,1.7,5.6,3.3,8.4,4.9,1.5.8,2,1.9,1.1,3.4-.9,1.5-2.1,2-3.8,1-6.7-3.9-13.5-7.9-20.2-11.8-2.9-1.7-5.9-3.4-8.8-5.2-.7-.5-1.2-1.4-1.9-2.2ZM112.9,209.9c1.1-1.6,2.1-2.8,2.9-4.2,2.4-4.4-1.5-10.9-6.5-11.1-3.2-.1-7.9,3.7-8.3,7,0,.5.2,1.3.6,1.5,3.7,2.3,7.5,4.5,11.4,6.8Z"/>
    <path class="cls-2" d="M191.4,118c-2-2.7-3.8-5.2-5.7-7.8-.4-.6-1-1.1-1.4-1.8-.8-1.4-2-2.8,0-4.3,2-1.3,3.1-.1,4.1,1.3,2.5,3.3,5,6.7,7.4,10,3.6,4.9,7.2,9.8,10.8,14.7.4.5.8,1.1,1.1,1.6,1,1.4,1.2,2.8-.4,3.9-1.4,1-2.7.4-3.6-.9-2.4-3.2-4.8-6.4-7.1-9.6-2-2.8-2.2-2.8-4.9-.8-4.3,3.1-8.6,6.2-12.9,9.4-2.7,2-2.7,2.3-.7,5,2,2.7,4.1,5.5,6.1,8.2.5.7,1,1.3,1.4,2.1.8,1.5.5,3-1,3.6-.8.3-2.5,0-3.1-.8-2.9-3.6-5.7-7.4-8.4-11.1-3.9-5.2-7.8-10.4-11.6-15.6-1.6-2.2-1.2-3.9,1.1-4.4.9-.2,2.4.5,3,1.3,2.2,2.7,4.2,5.6,6.3,8.4.7,1,1.5,1.4,2.7.6,5-3.7,10-7.4,15-11.2.6-.4,1-1,1.6-1.7Z"/>
    <path class="cls-2" d="M528,143.1c.3,4.5-4.8,10.2-8.7,10.5-4.5.4-7.2,1.8-7.2,7.4,0,4.1-.7,8,1.5,11.8.3.6,0,2.1-.4,2.4-.6.4-1.8.3-2.7,0-.5-.1-1-.8-1.4-1.4-1.8-3.1-2.8-6.4-2.4-9.9.3-2.4.4-4.8,1-7.1,1-3.6-.8-5.8-3.3-7.9-1.1-.9-1.7-.9-2.7.2-1.9,2.2-4,4.2-6,6.3-.5.5-.9,1.2-1.5,1.3-1.1.1-2.5.1-3.3-.4-.4-.3-.4-2.3.1-2.9,3.3-3.8,6.8-7.5,10.3-11.2,4.1-4.3,8.4-8.6,12.5-12.9,1.1-1.1,2.3-1.9,3.7-.8,3.6,2.9,7.4,5.7,9.1,10.3.5,1.4.8,2.8,1.2,4.3ZM514.3,149.7c3.3.2,5.5-1.6,7.5-3.9,1.5-1.8,1.5-4,.5-5.8-1.1-1.9-2.7-3.6-4.2-5.2-1-1.1-2-.9-3,.2-2.5,2.7-5.1,5.3-7.5,8-.4.5-.8,1.6-.5,1.9,2.1,2.1,3.5,5.3,7.2,4.9Z"/>
    <path class="cls-2" d="M110.3,267.8c-.6,1.1-1,2.4-1.7,2.7-.7.3-2.1-.3-2.8-.9-9.1-8-18.2-16.1-27.2-24.3-.8-.7-1.4-2.3-1.1-3.2.3-.9,1.8-1.8,2.8-1.8,9.4-.6,18.8-1,28.2-1.5,2.4-.1,4.8-.4,7.2-.7,1.7-.2,3.4-.4,4,1.8.4,1.9-.8,3.5-3.1,3.7-3.1.3-6.2.3-9.2.3-1.5,0-2.3.4-2.8,2.1-.9,3.2-2.2,6.2-3.4,9.4-.7,1.8-.4,3.1,1.2,4.4,2.2,1.7,4.2,3.5,6.2,5.4.7.7,1.1,1.7,1.7,2.8ZM87.5,245.2c0,.3-.2.6-.3.9,2.7,2.3,5.3,4.7,8,6.9.3.2,1.6-.1,1.7-.5.9-2.4,1.6-4.9,2.3-7.4h-11.8Z"/>
    <path class="cls-2" d="M104.7,295.6c.2,4.4-1.1,8.3-3.6,11.9-1.1,1.5-2.5,2.2-4,1.1-1.6-1.1-1.4-2.8-.3-4.2,2.1-2.9,3.1-6.2,2.9-9.8-.1-2.4-1.2-4.6-3.4-5.4-2.2-.8-4.5-.8-6.5,1.1-3.6,3.3-7.2,6.6-11,9.7-5.2,4.3-11.9,3.9-15.7-1-2.2-2.8-2.6-6.2-1.9-9.5.6-2.9,1.8-5.7,2.9-8.4.6-1.5,1.8-2.4,3.6-1.3,1.7,1,2,2.1,1.1,3.9-1.1,2.2-1.9,4.6-2.5,7-.6,2.3.4,4.3,2.3,5.7,2,1.4,4.2,1,6-.5,2-1.6,3.8-3.5,5.7-5.2,2.3-2,4.6-4.1,7-6,4-3.1,8.4-2.7,12.4-.4,3.4,2,5.1,5.4,5,9.5,0,.6,0,1.2,0,1.7Z"/>
    <path class="cls-2" d="M129.6,154.4c0-2.4,1.4-3.5,3.2-2.9,11.1,3.7,22.2,7.3,33.3,11,.7.2,1.3.7,2,.9,1.2.4,2.5,1.1,1.6,2.4-.7,1-2.2,2.2-3.2,2-2.7-.5-5.4-1.5-8-2.5-2.3-.9-4.3-1-6,1.2-2,2.5-4.3,4.9-6.3,7.4-.5.6-.6,2-.3,2.8,1,2.4,2.2,4.6,3.3,7,.4.9,1.1,1.9,1,2.7-.1,1.1-1,2-1.5,3.1-.9-.5-2.3-.7-2.7-1.5-4.7-9.2-9.2-18.4-13.7-27.7-1.1-2.2-2.1-4.3-2.8-6ZM149.9,162.5c-4.5-1.5-8.4-2.9-12.2-4.2-.2.2-.4.5-.6.7,1.8,3.7,3.7,7.3,5.8,11.5,2.5-2.8,4.5-5.2,7-8Z"/>
    <path class="cls-2" d="M325.1,98.3c-2.2,0-4.5,0-6.7,0-1.8,0-2.7-.6-2.8-2.6-.3-8.6-.7-17.1-1.1-25.7-.1-2.5-.6-4.9-.9-7.4-.2-2.1.8-3.1,2.8-3.2,4.5-.3,8.9-.8,13.4-1,1,0,2.5.6,3.1,1.4,1.1,1.7,0,3.3-1.9,3.5-3.1.4-6.3.7-9.4,1-1.5.1-2.2.7-2.3,2.3-.4,8.1-.4,8.1,7.5,8.1,1.2,0,2.5,0,3.7,0,1.4,0,2.5.4,2.5,2.1,0,1.6-.9,2.5-2.5,2.6-2.7,0-5.5.2-8.2.1-2,0-2.7.5-2.3,2.6.5,2.9.6,5.8.6,8.7,0,1.9.6,2.7,2.6,2.6,3.2-.2,6.3-.1,9.5-.2,1.4,0,2.8,0,2.9,1.9.1,1.8-.7,3-2.5,3-2.7,0-5.3,0-8,0,0,0,0,.1,0,.2Z"/>
    <path class="cls-2" d="M473.9,142.4c-1-.5-1.6-.7-2.2-1-3.7-2.5-7.5-5-11.2-7.5-2.3-1.5-2.5-2.6-.9-5,5.8-8.7,11.5-17.5,17.3-26.2,2-3.1,2.7-3.2,5.8-1.1,3.5,2.3,6.9,4.6,10.4,6.9,1.2.8,2.6,1.6,1.5,3.3-1,1.6-2.4,1.9-4.1.7-2.5-1.7-5-3.2-7.5-5-1.5-1.1-2.5-.9-3.5.6-1.1,1.8-2.2,3.5-3.5,5.2-.9,1.2-.7,2,.6,2.8,2.3,1.4,4.6,3,6.9,4.5,1.4.9,2,2,1.1,3.6-.9,1.5-2.1,1.6-3.6.6-2.2-1.6-4.7-2.9-6.9-4.5-1.4-1-2.1-.8-2.9.6-1.6,2.6-3.3,5.2-5.1,7.7-1.2,1.6-.7,2.5.7,3.4,2.7,1.8,5.5,3.5,8,5.5.7.6,1.2,2,1.1,2.9-.1.8-1.4,1.3-2.1,2Z"/>
    <path class="cls-2" d="M222.5,553.1c-1.4,3.5-2.9,7-4.3,10.5-.9,2.1-1.8,4.3-2.6,6.4-.7,1.7-2.2,1.7-3.3,1.1-.6-.3-1.1-1.9-.8-2.6,3.2-8.1,6.5-16.1,9.8-24.2.8-1.8,2.4-2.1,3.3-.3,1.1,1.9,1.7,4.1,2.4,6.2,2.3,6.4,4.5,12.8,6.7,19.2,0,.1.2.2.7.6,1.4-3.3,2.7-6.4,4-9.5,1-2.4,1.8-4.8,2.8-7.2.6-1.5,1.9-2.5,3.4-1.6.7.5,1.4,2.2,1,3-3.1,7.9-6.4,15.8-9.8,23.7-.3.7-1.3,1.4-2,1.4-.6,0-1.5-.9-1.8-1.7-2.1-5.8-4.1-11.7-6.2-17.5-.9-2.5-1.8-4.9-2.7-7.4-.2,0-.5,0-.7-.1Z"/>
    <path class="cls-2" d="M568.6,444.6c2.3,1.4,4.3,2.6,6.4,3.7,3.1,1.8,6.2,3.6,9.3,5.3,1.5.8,2.1,2,1.3,3.5-.8,1.6-2.1,1.1-3.4.4-7.2-4.1-14.5-8.1-21.7-12.2-.8-.5-1.9-1.9-1.6-2.3.4-.9,1.5-1.7,2.5-1.9,8.2-1.8,16.4-3.4,24.6-5.1.4,0,.7-.3,1.5-.6-5.1-2.9-9.8-5.6-14.5-8.3-.5-.3-1-.6-1.5-.8-1.4-.7-2.1-1.7-1.4-3.2.8-1.7,2.3-1.4,3.6-.7,4,2.2,8,4.4,12,6.7,3.3,1.9,6.7,3.8,9.9,5.8.7.4,1.4,1.4,1.4,2.1,0,.6-1.1,1.4-1.8,1.6-4,.9-8.1,1.7-12.1,2.6-4.3.9-8.6,1.7-12.9,2.6-.4,0-.8.5-1.5,1.1Z"/>
    <path class="cls-2" d="M538.5,181.2c.7-3.2.9-6.6,2.1-9.5,2.3-5.8,9.1-7.2,13.9-3.2,3.4,2.8,5.6,6.4,6.4,10.7.1.8-.7,2.1-1.5,2.6-.5.3-2-.4-2.5-1.1-1.1-1.8-1.8-3.9-2.9-5.7-1.6-2.7-4.1-4.1-5.8-3.5-2.1.6-3.9,3.6-4,6.4,0,3.5.1,7-.1,10.5-.2,3.5-1.3,6.7-4.3,8.9-3.3,2.5-6.7,3.6-10.6,1.2-4.8-3-8.1-7.1-9-12.8-.2-1.5-.2-3.2,2-3.3,2.1-.1,2.8,1.1,3.1,3,.5,3.6,2.5,6.5,5.6,8.4,2.7,1.6,5.9.4,7-2.6.6-1.5.9-3.2,1.1-4.8.2-1.6,0-3.3,0-5-.2,0-.4,0-.6-.1Z"/>
    <path class="cls-2" d="M291.1,590.3c.7-5.3,1.5-10.9,2.2-16.5.2-2,.2-4,.4-6,.2-2.7,1.4-3.9,4.1-3.4,3,.5,6.1,1,8.9,2.1,5.7,2.2,6.2,10.6,1.6,14.4-1.9,1.6-2,2.9-.7,4.8,2,2.8,3.2,6.2,6.8,7.8.7.3.9,1.8,1.3,2.8-1.1.3-2.3,1-3.3.7-5.4-1.5-7.2-6.4-9.8-10.6-.6-1-1.9-2.2-3-2.4-3-.5-3.2-.1-3.3,2.9,0,1.6,0,3.2-.2,4.7-.2,1.7-.8,3.3-2.8,3.1-2-.2-2-1.9-2-3.4,0-.2,0-.5,0-1ZM297.2,575.9c-.1,3.2.6,4.2,3.4,4.2,2.8,0,5.4-2.6,5.5-5.6.1-3.3-1.8-5.4-5.2-5.7-1.6-.1-2.5.3-2.8,2-.2,1.7-.6,3.4-1,5.1Z"/>
    <path class="cls-2" d="M552.8,492.4c-8.7.9-15.8-8-15.9-15.9,0-6.8,7-14.5,14.9-14.4,9.7,0,16.3,7.7,16.3,15.7,0,7-6.5,15.7-15.3,14.7ZM563.6,477.9c.7-6.6-6.2-12.2-11.5-11.9-6.7.4-10.7,4.5-11,11.2-.2,5.3,6.2,11.5,11.9,11.4,4.9,0,11-4.7,10.5-10.7Z"/>
    <path class="cls-2" d="M187.4,527.6c-.4,4.7-3,7.8-7.5,8.7-1.9.4-2.6,1.5-2.3,3.2.7,3.8-.5,8.1,2.5,11.4.3.4,0,2.1-.5,2.3-.7.3-2,.2-2.6-.3-2.7-2.1-3.6-5.1-3.9-8.3-.2-2.1,0-4.3-.1-6.5,0-1.7-2.2-4.1-3.7-4.1-.5,0-1.1.6-1.4,1.1-1.4,1.9-2.7,3.8-4.1,5.6-.7.9-1.6,1.8-2.9.8-1.3-1-1.5-2-.6-3.4,4.7-6.8,9.3-13.6,13.9-20.4,1-1.5,2.4-2.2,3.8-1.2,2.7,1.9,5.4,4.1,7.7,6.5,1,1.1,1.2,3,1.7,4.5ZM176.2,532.7c3.3,0,5.4-1.6,6.4-4.3.9-2.3-.8-3.5-2-4.9-.4-.5-1-.8-1.5-1.2-1.1-1-2-.9-2.8.4-1,1.6-2.2,3.1-3.2,4.7-1.7,2.5-1.5,3.4,1.2,4.7.8.4,1.7.5,2,.6Z"/>
    <path class="cls-2" d="M462.4,534.7c6.7-.6,10.9,7,8.8,11.9-.6,1.4-.3,2.1,1,2.7,3.6,1.6,7,3.8,11.3,3.4.8,0,1.7,1,2.5,1.5-.6.7-1.2,1.7-2,2.1-4.3,2.1-7.9-.4-11.7-1.9-2.1-.8-4-2.5-6.5-1.1-1.6.9-2.1,1.7-1.2,3.3,1,1.7,1.8,3.5,2.8,5.3.9,1.6.7,3-1,3.8-1.7.9-2.5-.7-3-1.7-3.8-7-7.5-14-11.2-21.1-1-1.9-.9-3.5,1.1-4.7,2.9-1.7,5.8-3.8,9.1-3.5ZM467.5,544.8c-.2-2.8-1.4-4.6-3.6-5.7-1.5-.8-5.1.2-6.4,1.8-.3.4-.4,1.4-.2,1.9.7,1.7,1.7,3.2,2.5,4.8,1.6,3,3,3.4,5.5,1.1,1-1,1.4-2.6,2.1-3.9Z"/>
    <path class="cls-2" d="M499.6,542.8c-7.1.4-12.1-6-14-10.7-3.6-8.7,3.2-16.6,9.7-19.6,1.3-.6,2.6-1.1,4-1.2.7,0,1.6.8,2.3,1.3-.5.8-.8,1.8-1.5,2.2-2.5,1.7-5.4,3-7.7,5-3.5,3.1-4.1,8.4-1.6,12.6,2.3,3.8,5.7,6.4,10.4,6.3,4.3,0,7.4-2.7,10-5.8.4-.4,0-1.7-.3-2.3-1.2-1.8-2.5-3.5-3.8-5.3-.9-1.2-1.9-2.6-.2-3.9,1.6-1.2,2.8-.2,3.8,1.1,1.9,2.6,3.8,5.1,5.5,7.7.4.7.7,2.1.3,2.7-3.8,5.7-8.6,9.9-16.9,9.9Z"/>
    <path class="cls-2" d="M276.5,589.9c-.3.3-.9,1.3-1.5,1.2-1-.1-2.4-.7-2.7-1.4-.7-2.3-1.1-4.7-1.4-7-.2-1.6-.5-2.4-2.2-2.7-2.2-.3-4.4-.8-6.5-1.6-1.5-.6-2.3-.2-3.1,1-1.3,1.8-2.5,3.5-3.9,5.2-1,1.2-2.2,2.3-3.8,1-1.4-1.2-.8-2.5.1-3.7,5.3-7.1,10.5-14.3,15.9-21.4.6-.8,2.1-1.2,3.2-1.2.6,0,1.3,1.5,1.4,2.5,1.3,6.7,2.5,13.5,3.6,20.3.4,2.4.5,4.8.8,7.8ZM268.5,568.2c-.2,0-.5-.1-.7-.2-.6.7-1.2,1.3-1.6,2.1-.8,1.3-1.4,2.6-2.1,3.9,1.7.4,3.4.8,5.1,1.2,0,0,.1,0,.7-.5-.4-2-.8-4.3-1.3-6.6Z"/>
    <path class="cls-2" d="M439.1,567c-.7-1.9-1.7-5.1-2.9-8.3-.9-2.6-2-5.2-2.9-7.9-.6-1.6-.3-3.1,1.5-3.7,1.7-.6,2.4.8,2.8,2,1.6,4.3,3.4,8.5,4.6,12.8,1.5,5.3,2.5,10.9-2.4,15-6,5.1-15.3,6.3-19.8-2.6-2.8-5.4-4.7-11.3-6.9-17-.6-1.5.1-2.7,1.6-3.1,1.6-.5,2.4.3,3,1.8,2,5.4,4,10.9,6.4,16.2,1.6,3.6,5.1,5,8.4,4.1,4.1-1.1,6.6-4.2,6.6-9.4Z"/>
    <path class="cls-2" d="M82.5,440.8c2.2-.1,4-.2,5.8-.3,2.2-.2,4.4-.6,6.7-.8,3.8-.4,7.6-.9,11.4-1.2.8,0,1.8-.2,2.4.1.7.4,1.4,1.2,1.6,2,.1.5-.6,1.4-1.2,1.8-.6.5-1.5.7-2.3.7-6.3.6-12.6,1-18.8,1.6-3.2.3-6.4.9-9.6,1.1-1.2,0-2.7-.5-3.4-1.3-.4-.5.3-2.3.9-3.2,6.1-7.9,12.2-15.8,18.4-23.6.6-.7,2.2-1.4,2.8-1.1,1.3.7,1.9,2.2.9,3.6-2.1,2.8-4.2,5.5-6.4,8.3-2.7,3.4-5.3,6.8-8,10.2-.3.4-.5,1-1.1,2.1Z"/>
    <path class="cls-2" d="M391.7,591.3c-1.1,0-2.2,0-3.2,0-1.5,0-3-.6-2.8-2.4.1-1.9,1.7-2.2,3.3-2.2,2,0,4.2.4,6.1-.1,1.5-.5,3.2-1.8,3.9-3.3.9-2-.1-4-2.1-5-3-1.6-6.1-3.1-9-4.7-4.7-2.6-6.2-5.9-5.2-10.4.6-2.7,2.7-4.2,4.8-5,2.7-1,5.8-1.1,8.8-1.2,1.4,0,2.9.7,2.7,2.6-.2,1.8-1.7,1.7-3.1,1.8-2.3.3-4.8.4-6.9,1.3-2.3.9-2.6,2.9-.8,4.6,1.9,1.8,4.3,3,6.6,4.3,2.3,1.4,4.7,2.4,6.9,4,4,3,4.5,11.7-2.5,14.5-2.2.9-4.7,1.2-7.1,1.8,0-.2,0-.3-.1-.5Z"/>
    <path class="cls-2" d="M114.8,458.4c-.6.3-.9.5-1.2.6q-5.3,3.5-1.7,8.7c.3.5.8,1,.8,1.5,0,.9-.2,1.8-.4,2.7-1-.2-2.3-.1-2.9-.7-1.2-1.2-2.1-2.8-3.1-4.2-1-1.4-2-1.5-3.3-.5-2,1.5-4,2.9-6.3,4.6,1.7,2.4,3.2,4.6,4.8,6.8.9,1.2,1.6,2.5.2,3.7-1.6,1.3-2.6,0-3.5-1.2-2.1-2.8-4.1-5.6-6.1-8.5-.9-1.3-.6-2.4.7-3.4,6.5-4.7,13-9.5,19.6-14.3,2.3-1.7,3.4-1.5,5,.8,1.8,2.4,3.6,4.8,5.3,7.3.7,1,1.6,2.2.2,3.3-1.5,1-2.7.2-3.6-1.1-1.5-2-2.9-4-4.5-6.2Z"/>
    <path class="cls-2" d="M149.2,508.5c1.8,1.7,3.4,3.2,5.1,4.7,1.1,1,1.9,2.2.8,3.5-1.2,1.4-2.4.5-3.4-.5-.6-.6-1.2-1.1-1.9-1.7-3.4-3-3.6-3-6.4.4q-3.8,4.5.8,8.4c.9.8,1.9,1.4,2.5,2.4.4.7.6,2.1.2,2.5-.5.5-2.1.8-2.5.4-3.2-2.5-6.3-5.2-9.2-8-.4-.4-.3-2.2.3-2.8,5.5-6.5,11.1-12.8,16.7-19.2,1.1-1.2,2.3-1.3,3.5-.2,2.4,2.1,4.9,4.2,7.4,6.4,1.1.9,2,2.3.7,3.4-.6.5-2.4.2-3.2-.4-1.7-1-3-2.6-4.7-3.7-.6-.4-2.1-.4-2.7.1-1.4,1.2-2.4,2.7-3.8,4.3Z"/>
    <path class="cls-2" d="M522.5,488.9c.7.6,1.5.9,1.6,1.5.2.6,0,1.5-.5,2-1.6,1.7-3.3,3.3-5,4.9-1,.9-1,1.7-.1,2.7,3.9,4.6,4,4.7,8.4.5.3-.3.6-.8.9-.8,1.2-.2,2.4-.4,3.6-.5-.3,1.1-.2,2.4-.9,3.2-1,1.4-2.4,2.5-3.8,3.6-.9.8-1.2,1.5-.2,2.5,1.6,1.7,3.2,3.4,4.8,5.1,1,1.1,1.8.7,2.7-.1,1.7-1.7,3.4-3.4,5.4-4.8.6-.4,1.8,0,2.7,0,0,.9.4,2.2-.1,2.7-2.6,2.7-5.3,5.3-8.1,7.8-1.1,1-2.2.9-3.3-.2-5.8-6.2-11.7-12.3-17.6-18.4-1.1-1.2-1.1-2.3,0-3.4,2.4-2.3,4.8-4.6,7.2-6.9.5-.5,1.2-.8,2-1.2Z"/>
    <path class="cls-2" d="M336.5,581c2.3-4.1,4.3-7.5,6.2-10.9,1.7-3,3.6-4.3,5-3.1,2.3,2,0,3.6-.9,5.2-2.1,4-4.7,7.8-6.8,11.9-.8,1.4-1.1,3.1-1.3,4.7-.2,2,0,4,0,6,0,1.5-.4,2.7-2.2,2.6-1.6,0-2.3-1.1-2.4-2.7,0-.6-.1-1.2,0-1.7,1-5.5-1.7-9.8-4.4-14.1-1.7-2.7-3.4-5.5-5.1-8.3-.8-1.2-1.3-2.6.2-3.5,1.5-.9,2.9-.3,3.8,1.2,1.7,2.8,3.4,5.7,5.2,8.5.8,1.3,1.6,2.5,2.7,4.3Z"/>
    <path class="cls-2" d="M133.2,481.6c-.5-.7-.9-1.3-1.4-1.9-1.1-1.3-2.3-2.4-3.2-3.8-.4-.6-.2-2.1.3-2.5.5-.4,2.1-.4,2.5.1,4.3,4.6,8.6,9.3,12.7,14,.4.5,0,1.7,0,2.6-1,0-2.2.3-2.8-.1-1.3-.9-2.2-2.2-3.2-3.4-1.1-1.4-2-1.8-3.6-.3-4.8,4.6-9.8,9-14.8,13.4-1.1,1-2.5,3-4.1,1.1-1.6-1.8.2-3.2,1.5-4.3,4.7-4.3,9.5-8.6,14.2-12.9.6-.5,1.1-1.2,1.7-2Z"/>
    <path class="cls-2" d="M190.6,559.3c.3-.8.3-1.3.6-1.7,4-7.4,8.1-14.7,12.1-22.1.7-1.3,1.7-2,3-1.2,1.3.8,1.6,2,.8,3.4-3.6,6.5-7.1,13-10.7,19.5-.6,1.2-1.2,2.4-2.1,3.3-.5.5-1.7.6-2.5.4-.6-.2-.9-1.2-1.2-1.7Z"/>
    <path class="cls-1" d="M332.1,479.7c-92.5-1.9-166.4-79-161.3-174.1,4.8-88.5,79.8-159.4,172.3-154.9,90.7,4.4,158.7,78.7,157.1,167.5-1.8,94.9-80.4,163.4-168.1,161.5ZM373.3,353.2c0-8.7,0-17.5,0-26.2,0-2.4.5-3.4,3.2-3.3,10,.1,20,.1,30,0,2.5,0,3.1.8,3.1,3.2,0,12.2,0,24.3,0,36.5,0,5.7,0,11.5,0,17.2,0,1.8-.6,2.6-2.5,2.5-2,0-4,0-6,0-2,0-2.6.9-2.5,2.8,0,2.4,1.8,2,3.2,2,17.6,0,35.2,0,52.7,0,.3,0,.7,0,1,0,1.7,0,2.3-.8,2.3-2.5,0-1.6-.7-2.3-2.2-2.3-1.7,0-3.5,0-5.2,0q-3.5,0-3.5-3.6c0-38.2,0-76.5,0-114.7,0-.5,0-1,0-1.5-.1-1.5.6-2.1,2.1-2.1,2.1,0,4.2,0,6.2,0,2.4,0,3.1-1.1,2.6-3.4-.5-1.9-2-1.5-3.2-1.5-17.6,0-35.2,0-52.7,0-.4,0-.8,0-1.2,0-1.7,0-1.9,1.2-2,2.6,0,1.4.5,2.3,2,2.3,2,0,4,.2,6,0,2.3-.2,3,.7,3,3,0,16.8,0,33.7,0,50.5,0,2.3-.7,3-3,3-10.1-.1-20.2-.1-30.2,0-2.3,0-3-.7-3-3,0-11.8,0-23.7,0-35.5,0-4.9,0-9.8,0-14.7,0-3,.2-3.2,3.3-3.2,1.7,0,3.5,0,5.2,0,1.7,0,2.4-.8,2.3-2.5,0-1.7-.8-2.4-2.5-2.4-2.1,0-4.2,0-6.2,0-15.8,0-31.7,0-47.5,0-1.8,0-3.1.3-3,2.6,0,2.2,1.4,2.3,3,2.3,1.4,0,2.8,0,4.2,0q3.8,0,3.8,3.8c0,38.2,0,76.3,0,114.5,0,.3,0,.5,0,.7.3,2.1-.5,3.1-2.8,2.9-1.9-.2-3.8,0-5.7,0-2.2-.1-2.7,1.1-2.5,3,.2,2,1.6,1.8,2.9,1.8,17.7,0,35.5,0,53.2,0,.3,0,.7,0,1,0,1.7,0,2-1.1,2-2.6,0-1.4-.6-2.2-2.1-2.2s-4-.1-6,0c-2.2.2-2.9-.7-2.8-2.9,0-9,0-18,0-27ZM306.3,285.9c-.4-9.3-.7-18.2-1.2-27.1,0-.8-.7-1.6-1-2.3-.8.4-1.9.6-2.4,1.3-1.3,1.6-2.9,2.4-4.8,2.1-3.3-.5-6.5-1.2-9.7-2-12.4-3.2-24.8-5.3-37.5-1.6-13.9,4-23.6,12.7-28.2,26.6-3.4,10.3-2.5,20.6,1.2,30.6,2.6,6.8,7.1,12.1,13.3,16,6.9,4.4,14.4,7.2,22.2,9.5,9,2.6,17.9,5.2,26.1,9.9,10.8,6.2,12.1,22.4,3.8,29.7-6,5.2-13.1,6.7-20.5,5.9-8.7-.9-16.2-4.8-22.7-10.7-8.7-7.9-15.6-17.1-21.1-27.4-.8-1.5-1.8-2.4-3.5-2-2,.4-1.3,2.1-1.3,3.3.5,13.1,1,26.3,1.7,39.4,0,.9.9,1.7,1.3,2.6,1-.6,2.4-.9,2.9-1.7,2.3-3.7,2.9-4.2,7.2-3.6,1.3.2,2.6.6,3.9.8,13.1,2.8,26.3,5.6,39.8,4,14.9-1.8,26.3-8.9,33.6-22.2,5.1-9.4,5.7-19.6,4.4-29.9-1.4-11.6-7.1-20.4-17-26.6-6.8-4.3-14.4-6.5-22-8.8-7.6-2.4-15.3-4.7-22.8-7.4-5.1-1.8-9.4-4.9-11.4-10.2-3.9-10.6,1.1-20.2,12.4-23.5,10.6-3.1,20.3-.3,28.7,6.7,6.5,5.3,11.3,12.2,15.8,19.2,1.5,2.5,2.9,5.1,4.6,7.4.5.7,2,1,3,1,.3,0,.9-1.4,1-2.2.1-2.4,0-4.8,0-6.8Z"/>
    <path class="cls-1" d="M444.3,95.3c-.2,3.9-1.3,7.3-3.3,10.4-3.8,5.9-9.7,6.7-16.3,4.6-2-.6-3.8-1.5-5.7-2.4-1.4-.6-2-1.6-1.4-3.2,3.3-7.8,6.5-15.6,9.7-23.4.5-1.3,1.1-1.6,2.4-1.1,5.4,1.8,10.2,4.4,13,9.7.9,1.6,1.1,3.6,1.6,5.4Z"/>
    <path class="cls-1" d="M565.9,241.3c-9.1.8-14.3-7.7-14.2-14.5,0-6.6,8.2-14.8,16.1-14.5,7.8.4,13.9,6.3,14.3,14.6.3,6.9-8.7,15.5-16.1,14.3Z"/>
    <path class="cls-1" d="M112.9,209.9c-3.9-2.3-7.7-4.5-11.4-6.8-.4-.2-.6-1-.6-1.5.5-3.3,5.1-7.1,8.3-7,5,.2,8.8,6.7,6.5,11.1-.7,1.4-1.8,2.6-2.9,4.2Z"/>
    <path class="cls-1" d="M514.3,149.7c-3.7.4-5.1-2.8-7.2-4.9-.2-.2.1-1.4.5-1.9,2.5-2.7,5-5.3,7.5-8,1-1.1,2-1.2,3-.2,1.5,1.7,3.1,3.3,4.2,5.2,1,1.9,1,4-.5,5.8-1.9,2.3-4.2,4-7.5,3.9Z"/>
    <path class="cls-1" d="M87.5,245.2h11.8c-.8,2.4-1.5,4.9-2.3,7.4-.1.3-1.4.7-1.7.5-2.7-2.2-5.4-4.6-8-6.9,0-.3.2-.6.3-.9Z"/>
    <path class="cls-1" d="M149.9,162.5c-2.5,2.9-4.5,5.2-7,8-2.1-4.1-3.9-7.8-5.8-11.5.2-.2.4-.5.6-.7,3.8,1.3,7.7,2.6,12.2,4.2Z"/>
    <path class="cls-1" d="M297.2,575.9c.3-1.7.7-3.4,1-5.1.2-1.7,1.2-2.2,2.8-2,3.4.3,5.3,2.4,5.2,5.7-.1,3-2.7,5.7-5.5,5.6-2.8,0-3.5-1-3.4-4.2Z"/>
    <path class="cls-1" d="M563.6,477.9c.5,6-5.7,10.6-10.5,10.7-5.6,0-12.1-6.1-11.9-11.4.3-6.7,4.2-10.8,11-11.2,5.2-.3,12.1,5.3,11.5,11.9Z"/>
    <path class="cls-1" d="M176.2,532.7c-.3,0-1.2-.2-2-.6-2.7-1.4-2.9-2.2-1.2-4.7,1.1-1.6,2.2-3.1,3.2-4.7.8-1.3,1.7-1.4,2.8-.4.5.4,1.1.8,1.5,1.2,1.2,1.4,2.9,2.6,2,4.9-1.1,2.7-3.2,4.2-6.4,4.3Z"/>
    <path class="cls-1" d="M467.5,544.8c-.7,1.3-1.1,2.9-2.1,3.9-2.5,2.3-3.9,1.9-5.5-1.1-.8-1.6-1.8-3.2-2.5-4.8-.2-.5-.2-1.5.2-1.9,1.3-1.6,4.9-2.6,6.4-1.8,2.2,1.1,3.4,2.9,3.6,5.7Z"/>
    <path class="cls-1" d="M268.5,568.2c.4,2.3.9,4.5,1.3,6.6-.6.4-.7.5-.7.5-1.7-.4-3.4-.8-5.1-1.2.7-1.3,1.4-2.7,2.1-3.9.5-.7,1.1-1.4,1.6-2.1.2,0,.5.1.7.2Z"/>
    <path class="cls-2" d="M373.3,353.2c0,9,0,18,0,27,0,2.2.6,3.1,2.8,2.9,2-.1,4,0,6,0s2.1.8,2.1,2.2c0,1.4-.3,2.5-2,2.6-.3,0-.7,0-1,0-17.7,0-35.5,0-53.2,0-1.3,0-2.8.2-2.9-1.8-.2-1.9.3-3.1,2.5-3,1.9,0,3.8-.1,5.7,0,2.3.2,3.1-.8,2.8-2.9,0-.2,0-.5,0-.7,0-38.2,0-76.3,0-114.5q0-3.8-3.8-3.8c-1.4,0-2.8,0-4.2,0-1.6,0-3-.1-3-2.3,0-2.3,1.2-2.6,3-2.6,15.8,0,31.7,0,47.5,0,2.1,0,4.2,0,6.2,0,1.6,0,2.5.6,2.5,2.4,0,1.7-.7,2.5-2.3,2.5-1.7,0-3.5,0-5.2,0-3.1,0-3.3.2-3.3,3.2,0,4.9,0,9.8,0,14.7,0,11.8,0,23.7,0,35.5,0,2.3.7,3,3,3,10.1-.1,20.2-.1,30.2,0,2.3,0,3-.8,3-3,0-16.8,0-33.7,0-50.5,0-2.3-.7-3.2-3-3-2,.1-4,0-6,0-1.5,0-2-.9-2-2.3,0-1.4.2-2.5,2-2.6.4,0,.8,0,1.2,0,17.6,0,35.2,0,52.7,0,1.2,0,2.8-.4,3.2,1.5.5,2.2-.2,3.3-2.6,3.4-2.1,0-4.2,0-6.2,0-1.5,0-2.2.5-2.1,2.1,0,.5,0,1,0,1.5,0,38.2,0,76.5,0,114.7q0,3.6,3.5,3.6c1.7,0,3.5,0,5.2,0,1.6,0,2.2.7,2.2,2.3,0,1.6-.6,2.5-2.3,2.5-.3,0-.7,0-1,0-17.6,0-35.2,0-52.7,0-1.5,0-3.1.3-3.2-2,0-1.9.5-2.8,2.5-2.8,2,0,4,0,6,0,1.9,0,2.5-.7,2.5-2.5,0-5.7,0-11.5,0-17.2,0-12.2,0-24.3,0-36.5,0-2.3-.6-3.2-3.1-3.2-10,.1-20,.1-30,0-2.6,0-3.2.9-3.2,3.3.1,8.7,0,17.5,0,26.2Z"/>
    <path class="cls-2" d="M306.3,285.9c0,2,0,4.4,0,6.8,0,.8-.6,2.2-1,2.2-1,0-2.5-.3-3-1-1.7-2.3-3.1-4.9-4.6-7.4-4.4-7.1-9.3-13.9-15.8-19.2-8.4-6.9-18.2-9.7-28.7-6.7-11.3,3.3-16.4,12.8-12.4,23.5,2,5.3,6.3,8.4,11.4,10.2,7.5,2.7,15.2,5,22.8,7.4,7.6,2.4,15.2,4.5,22,8.8,9.9,6.2,15.6,15.1,17,26.6,1.2,10.3.7,20.5-4.4,29.9-7.2,13.3-18.7,20.4-33.6,22.2-13.6,1.6-26.7-1.2-39.8-4-1.3-.3-2.6-.7-3.9-.8-4.3-.6-4.9-.2-7.2,3.6-.5.8-1.9,1.2-2.9,1.7-.5-.9-1.3-1.7-1.3-2.6-.6-13.1-1.2-26.3-1.7-39.4,0-1.2-.7-2.9,1.3-3.3,1.7-.4,2.7.5,3.5,2,5.5,10.3,12.4,19.5,21.1,27.4,6.5,5.9,14,9.8,22.7,10.7,7.4.7,14.5-.7,20.5-5.9,8.3-7.2,7-23.5-3.8-29.7-8.2-4.7-17.1-7.3-26.1-9.9-7.8-2.2-15.3-5.1-22.2-9.5-6.2-3.9-10.8-9.2-13.3-16-3.7-10-4.6-20.2-1.2-30.6,4.6-13.9,14.3-22.5,28.2-26.6,12.7-3.7,25.1-1.6,37.5,1.6,3.2.8,6.5,1.5,9.7,2,1.9.3,3.5-.5,4.8-2.1.5-.6,1.6-.9,2.4-1.3.4.8,1,1.5,1,2.3.4,8.9.8,17.8,1.2,27.1Z"/>
  </g>
</svg>